<svg xmlns="http://www.w3.org/2000/svg" viewBox="0 0 64 64">
  <defs>
    <linearGradient id="g" x1="0" y1="0" x2="1" y2="1">
      <stop offset="0%" stop-color="#3b82f6"/>
      <stop offset="100%" stop-color="#1d4ed8"/>
    </linearGradient>
  </defs>
  <rect width="64" height="64" rx="14" fill="url(#g)"/>
  <path fill="#ffffff" d="M32 10 14 18v14c0 12.6 8.6 22.6 18 25 9.4-2.4 18-12.4 18-25V18L32 10z"/>
  <path fill="#1d4ed8" d="M32 22c-4.4 0-8 2.5-8 5.5 0 2.7 2.4 4.3 6.6 5.4 3.4.9 4.4 1.5 4.4 2.6 0 1-1.3 1.8-3 1.8-2.1 0-3.7-1-4.4-2.5l-3.4 2c1.4 2.7 4.4 4.2 7.8 4.2 4.6 0 8-2.6 8-5.7 0-2.9-2.3-4.4-6.7-5.5-3.4-.8-4.3-1.4-4.3-2.4 0-.9 1.1-1.6 2.6-1.6 1.7 0 3 .8 3.7 2l3.3-1.9C38.7 23.5 35.7 22 32 22z"/>
</svg>
